<mxfile
  host="Electron" 
  agent="Mozilla/5.0 (Macintosh; Intel Mac OS X 10_15_7) AppleWebKit/537.36 (KHTML, like Gecko) draw.io/25.0.2 Chrome/128.0.6613.186 Electron/32.2.5 Safari/537.36" 
  version="25.0.2"
  >
  <diagram
    name="-"
    >
    <mxGraphModel
      grid="1" 
      gridSize="10" 
      guides="1" 
      tooltips="1" 
      connect="1" 
      arrows="1" 
      fold="1" 
      page="1" 
      pageScale="1" 
      pageWidth="1" 
      pageHeight="1" 
      math="0" 
      shadow="0"
      >
      <root>
        <mxCell
          id="page"
          />
        <mxCell
          id="root" 
          parent="page"
          />
        <mxCell
          style="verticalAlign=top;aspect=fixed;align=center;spacingLeft=5;spacingRight=5;spacingBottom=5;strokeColor=none;" 
          id="shape_" 
          parent="root" 
          value=" " 
          vertex="1"
          >
          <mxGeometry
            as="geometry" 
            width="80" 
            height="50" 
            x="0" 
            y="0"
            />
          </mxCell>
        <mxCell
          style="html=1;shadow=0;dashed=0;shape=mxgraph.bootstrap.popover;fillColor=#1A1A1A;strokeColor=none;dx=12;dy=5;rSize=5;whiteSpace=wrap;verticalAlign=top;spacing=10;fontSize=12;spacingLeft=5;align=center;spacingTop=-10;fontColor=#FFFFFF;direction=south;" 
          id="tooltip_on_right_" 
          parent="shape_" 
          value=" " 
          vertex="1"
          >
          <mxGeometry
            width="60" 
            height="30" 
            as="geometry" 
            x="10" 
            y="10"
            />
          </mxCell>
        </root>
      </mxGraphModel>
    </diagram>
  </mxfile>